# xmcd
#
# Track frame offsets: 
#        150
#        17236
#        28445
#        49784
#        75516
#        88980
#        102520
#        114543
#        136908
#        155045
#        174213
#        193364
#        214224
#
# Disc length: 2967 seconds
#
# Revision: 0
# Processed by: cddbd v1.5.2PL0 Copyright (c) Steve Scherf et al.
# Submitted via: ExactAudioCopy v0.99pb5
#
DISCID=ba0b950d
DTITLE=John Cowan - The Massenburg Sessions 
DYEAR=2010
DGENRE=Bluegrass
TTITLE0=My Time in the Desert/Maggie Little
TTITLE1=Caldonia
TTITLE2=King of California
TTITLE3=The Lakes of Ponchartrain
TTITLE4=Jesus Gave Me Water
TTITLE5=Long Road Back to You
TTITLE6=Safe Within Your Arms
TTITLE7=Carry On
TTITLE8=Heart of the Country
TTITLE9=Can't You Hear Me Callin'
TTITLE10=Black Blizzard
TTITLE11=Soiled Dove
TTITLE12=Soiled Dove (Reprise)
EXTD=
EXTT0=
EXTT1=
EXTT2=
EXTT3=
EXTT4=
EXTT5=
EXTT6=
EXTT7=
EXTT8=
EXTT9=
EXTT10=
EXTT11=
EXTT12=
PLAYORDER=
